<svg width="1600" height="600" viewBox="0 0 1600 600" fill="none" xmlns="http://www.w3.org/2000/svg">

<defs>

<linearGradient id="bg" x1="0" y1="0" x2="1600" y2="600">
<stop offset="0%" stop-color="#0D1117">
<animate attributeName="stop-color"
values="#0D1117;#111827;#0D1117"
dur="12s"
repeatCount="indefinite"/>
</stop>

<stop offset="100%" stop-color="#111827">
<animate attributeName="stop-color"
values="#111827;#0F172A;#111827"
dur="12s"
repeatCount="indefinite"/>
</stop>

</linearGradient>

<radialGradient id="glow1">
<stop offset="0%" stop-color="#3B82F6" stop-opacity="0.45"/>
<stop offset="100%" stop-color="#3B82F6" stop-opacity="0"/>
</radialGradient>

<radialGradient id="glow2">
<stop offset="0%" stop-color="#38BDF8" stop-opacity="0.35"/>
<stop offset="100%" stop-color="#38BDF8" stop-opacity="0"/>
</radialGradient>

<filter id="blur">
<feGaussianBlur stdDeviation="35"/>
</filter>

</defs>

<rect width="1600" height="600" fill="url(#bg)"/>

<g opacity=".15">

<path d="M0 80H1600"/>
<path d="M0 160H1600"/>
<path d="M0 240H1600"/>
<path d="M0 320H1600"/>
<path d="M0 400H1600"/>
<path d="M0 480H1600"/>
<path d="M0 560H1600"/>

<path d="M120 0V600"/>
<path d="M240 0V600"/>
<path d="M360 0V600"/>
<path d="M480 0V600"/>
<path d="M600 0V600"/>
<path d="M720 0V600"/>
<path d="M840 0V600"/>
<path d="M960 0V600"/>
<path d="M1080 0V600"/>
<path d="M1200 0V600"/>
<path d="M1320 0V600"/>
<path d="M1440 0V600"/>

</g>

<g filter="url(#blur)">

<circle cx="1250" cy="180" r="140" fill="url(#glow1)">
<animate attributeName="cy"
values="180;210;180"
dur="8s"
repeatCount="indefinite"/>
</circle>

<circle cx="1100" cy="420" r="170" fill="url(#glow2)">
<animate attributeName="cx"
values="1100;1140;1100"
dur="10s"
repeatCount="indefinite"/>
</circle>

</g>

<g stroke="#38BDF8" stroke-opacity=".55" stroke-width="2">

<line x1="960" y1="150" x2="1080" y2="210"/>
<line x1="1080" y1="210" x2="1240" y2="170"/>
<line x1="1080" y1="210" x2="1170" y2="330"/>
<line x1="1170" y1="330" x2="1320" y2="270"/>
<line x1="1170" y1="330" x2="1010" y2="390"/>
<line x1="1320" y1="270" x2="1450" y2="200"/>
<line x1="1010" y1="390" x2="1190" y2="470"/>
<line x1="1190" y1="470" x2="1380" y2="410"/>

</g>

<g fill="#38BDF8">

<circle cx="960" cy="150" r="5">
<animate attributeName="r" values="5;8;5" dur="4s" repeatCount="indefinite"/>
</circle>

<circle cx="1080" cy="210" r="6">
<animate attributeName="r" values="6;9;6" dur="5s" repeatCount="indefinite"/>
</circle>

<circle cx="1240" cy="170" r="5">
<animate attributeName="r" values="5;7;5" dur="6s" repeatCount="indefinite"/>
</circle>

<circle cx="1170" cy="330" r="7">
<animate attributeName="r" values="7;10;7" dur="4s" repeatCount="indefinite"/>
</circle>

<circle cx="1320" cy="270" r="6">
<animate attributeName="r" values="6;9;6" dur="5s" repeatCount="indefinite"/>
</circle>

<circle cx="1010" cy="390" r="5">
<animate attributeName="r" values="5;8;5" dur="7s" repeatCount="indefinite"/>
</circle>

<circle cx="1190" cy="470" r="6">
<animate attributeName="r" values="6;9;6" dur="5s" repeatCount="indefinite"/>
</circle>

<circle cx="1380" cy="410" r="5">
<animate attributeName="r" values="5;8;5" dur="6s" repeatCount="indefinite"/>
</circle>

<circle cx="1450" cy="200" r="5">
<animate attributeName="r" values="5;8;5" dur="4s" repeatCount="indefinite"/>
</circle>

</g>

<text
x="120"
y="185"
font-family="Inter,Segoe UI,sans-serif"
font-size="64"
font-weight="700"
fill="#F8FAFC">
AMATYA JOSHI
</text>

<text
x="125"
y="240"
font-family="Inter,Segoe UI,sans-serif"
font-size="24"
fill="#60A5FA">
Software Engineer • AI Engineer • Full Stack Developer
</text>

<text
x="125"
y="310"
font-family="Inter,Segoe UI,sans-serif"
font-size="22"
fill="#94A3B8">
Building intelligent software,
</text>

<text
x="125"
y="345"
font-family="Inter,Segoe UI,sans-serif"
font-size="22"
fill="#94A3B8">
enterprise AI systems,
</text>

<text
x="125"
y="380"
font-family="Inter,Segoe UI,sans-serif"
font-size="22"
fill="#94A3B8">
and scalable cloud applications.
</text>

</svg>